<?xml version="1.0" encoding="UTF-8"?>
<svg width="250px" height="250px" viewBox="0 0 250 250" version="1.1" xmlns="http://www.w3.org/2000/svg" xmlns:xlink="http://www.w3.org/1999/xlink">
    <title>Group 14</title>
    <g id="Page-1" stroke="none" stroke-width="1" fill="none" fill-rule="evenodd">
        <g id="Group-14">
            <rect id="Rectangle" x="0" y="0" width="250" height="250"></rect>
            <g id="Group" transform="translate(56.000000, 57.000000)" fill-rule="nonzero">
                <path d="M138,15.7826888 C138,20.1243094 135.94324,31.5607735 119.002275,31.5607735 C102.05676,31.5607735 100,20.1243094 100,15.7826888 C100,11.4364641 102.05676,0 119.002275,0 C135.94324,0 138,11.4364641 138,15.7826888 L138,15.7826888 Z M106.384146,15.7826888 C106.384146,19.4843462 108.895941,24.7007366 119.002275,24.7007366 C129.104059,24.7007366 131.615854,19.4889503 131.615854,15.7826888 C131.615854,12.0764273 129.104059,6.86003683 119.002275,6.86003683 C108.895941,6.86003683 106.384146,12.0764273 106.384146,15.7826888 Z M137.044426,57.0810313 L137.044426,63.480663 L100.955574,63.480663 L100.955574,56.6206262 L126.692372,43.2228361 L126.692372,43.1307551 L100.955574,43.1307551 L100.955574,36.7265193 L137.048976,36.7265193 L137.048976,43.9548803 L111.912825,56.9843462 L111.912825,57.0764273 L137.044426,57.0764273 L137.044426,57.0810313 Z M130.66028,94.2173112 L130.66028,76.7955801 L123.070291,76.7955801 L123.070291,92.8084715 L116.686145,92.8084715 L116.686145,76.7955801 L107.335169,76.7955801 L107.335169,95 L100.955574,95 L100.955574,70.0736648 L137.048976,70.0736648 L137.048976,94.2219153 L130.664831,94.2219153 L130.66028,94.2173112 Z" id="Shape" fill="#010202"></path>
                <path d="M26.1345496,137 L0,137 L0,1 L57.1493729,1 C81.368301,1 96,17.8571333 96,44.5635317 C96,56.8762514 89.7240593,87.940369 56.1003421,87.940369 L26.1345496,87.940369 L26.1345496,137 Z M50.3534778,64.4533097 C69.8654504,64.4533097 69.8654504,49.2991931 69.8654504,43.2384572 C69.8654504,29.9786051 63.0695553,24.4870593 46.8688712,24.4870593 L26.1345496,24.4870593 L26.1345496,64.4533097 L50.3534778,64.4533097 L50.3534778,64.4533097 Z" id="Shape" fill="#354B6A"></path>
                <polygon id="Path" fill="#1A1A1A" points="102 101 138 101 138 137 102 137"></polygon>
                <path d="M138,15.7826888 C138,20.1243094 135.94324,31.5607735 119.002275,31.5607735 C102.05676,31.5607735 100,20.1243094 100,15.7826888 C100,11.4364641 102.05676,0 119.002275,0 C135.94324,0 138,11.4364641 138,15.7826888 L138,15.7826888 Z M106.384146,15.7826888 C106.384146,19.4843462 108.895941,24.7007366 119.002275,24.7007366 C129.104059,24.7007366 131.615854,19.4889503 131.615854,15.7826888 C131.615854,12.0764273 129.104059,6.86003683 119.002275,6.86003683 C108.895941,6.86003683 106.384146,12.0764273 106.384146,15.7826888 Z M137.044426,57.0810313 L137.044426,63.480663 L100.955574,63.480663 L100.955574,56.6206262 L126.692372,43.2228361 L126.692372,43.1307551 L100.955574,43.1307551 L100.955574,36.7265193 L137.048976,36.7265193 L137.048976,43.9548803 L111.912825,56.9843462 L111.912825,57.0764273 L137.044426,57.0764273 L137.044426,57.0810313 Z M130.66028,94.2173112 L130.66028,76.7955801 L123.070291,76.7955801 L123.070291,92.8084715 L116.686145,92.8084715 L116.686145,76.7955801 L107.335169,76.7955801 L107.335169,95 L100.955574,95 L100.955574,70.0736648 L137.048976,70.0736648 L137.048976,94.2219153 L130.664831,94.2219153 L130.66028,94.2173112 Z" id="Shape" fill="#760F00"></path>
                <polygon id="Path" fill="#354B6A" points="102 101 138 101 138 137 102 137"></polygon>
            </g>
        </g>
    </g>
</svg>