<?xml version="1.0" encoding="UTF-8" standalone="no"?>
<svg
   viewBox="0 0 621.672 394.889"
   version="1.1"
   id="svg4"
   xmlns="http://www.w3.org/2000/svg"
   xmlns:svg="http://www.w3.org/2000/svg">
  <defs
     id="defs2">
    <clipPath
       id="a"
       clipPathUnits="userSpaceOnUse">
      <path
         d="M0 296.167h466.254V0H0Z"
         id="path1" />
    </clipPath>
    <clipPath
       id="b"
       clipPathUnits="userSpaceOnUse">
      <path
         d="M-.001 296.167h466.244V.003H-.001Z"
         id="path2" />
    </clipPath>
  </defs>
  <g
     id="pro-carrier-logo"
     transform="matrix(6.9545937,0,0,6.9545937,-235.3619,-2990.6332)">
    <path
       id="Path_341"
       data-name="Path 341"
       d="m 78.826,432.989 a 19.768,19.768 0 0 0 -19.749,19.749 c 0,10.892 11.5,23.269 19.749,30.365 8.251,-7.1 19.748,-19.474 19.748,-30.365 A 19.767,19.767 0 0 0 78.826,432.989 Z"
       transform="translate(0,0.013)"
       fill="#2c1f72" />
    <g
       id="Group_261"
       data-name="Group 261"
       transform="translate(66.76,439.847)">
      <g
         id="Group_260"
         data-name="Group 260">
        <path
           id="Path_342"
           data-name="Path 342"
           d="m 78.115,439.552 a 2.5,2.5 0 0 0 -2.5,2.5 v 6.714 l 2.5,1.443 2.5,-1.443 v -6.714 a 2.5,2.5 0 0 0 -2.5,-2.5"
           transform="translate(-66.049,-439.552)"
           fill="#e72f70" />
        <path
           id="Path_343"
           data-name="Path 343"
           d="m 78.115,455.307 -2.5,1.443 v 6.715 a 2.5,2.5 0 1 0 5,0 v -6.715 l -2.5,-1.443"
           transform="translate(-66.049,-438.875)"
           fill="#e72f70" />
        <path
           id="Path_344"
           data-name="Path 344"
           d="m 68.946,444.847 a 2.5,2.5 0 0 0 -1.253,4.665 l 5.815,3.357 2.5,-1.444 v -2.887 l -5.816,-3.357 a 2.484,2.484 0 0 0 -1.247,-0.335"
           transform="translate(-66.443,-439.324)"
           fill="#e2de00" />
        <path
           id="Path_345"
           data-name="Path 345"
           d="m 82.909,452.539 -2.5,1.443 v 2.887 l 5.815,3.357 a 2.5,2.5 0 0 0 2.5,-4.33 l -5.816,-3.357"
           transform="translate(-65.843,-438.994)"
           fill="#e2de00" />
        <path
           id="Path_346"
           data-name="Path 346"
           d="m 73.508,452.539 -5.814,3.361 a 2.5,2.5 0 1 0 2.5,4.33 l 5.816,-3.357 v -2.887 l -2.5,-1.443"
           transform="translate(-66.443,-438.994)"
           fill="#46baba" />
        <path
           id="Path_347"
           data-name="Path 347"
           d="m 87.472,444.847 a 2.49,2.49 0 0 0 -1.248,0.335 l -5.815,3.357 v 2.887 l 2.5,1.444 5.816,-3.357 a 2.5,2.5 0 0 0 -1.253,-4.665"
           transform="translate(-65.843,-439.324)"
           fill="#46baba" />
        <path
           id="Path_348"
           data-name="Path 348"
           d="m 80.718,451.274 v -2.887 l -2.5,1.443 -2.5,-1.443 v 2.887 l -2.5,1.443 2.5,1.444 v 2.887 l 2.5,-1.443 2.5,1.443 v -2.887 l 2.5,-1.444 z"
           transform="translate(-66.152,-439.172)"
           fill="#ffffff" />
      </g>
    </g>
  </g>
</svg>
