<?xml version="1.0" encoding="UTF-8" standalone="no"?>
<svg
        version="1.1"
        id="Layer_1"
        x="0px"
        y="0px"
        viewBox="0 0 205 106"
        xml:space="preserve"
        width="205"
        height="106"
        xmlns="http://www.w3.org/2000/svg"
        xmlns:svg="http://www.w3.org/2000/svg"
><defs
   id="defs19" />
    <style
            type="text/css"
            id="style1">
	.st0{fill:#FF6600;}
	.st1{fill:#4D148C;}
</style>
    <g
            id="g19">
	<path
            class="st0"
            d="m 159.42274,15.697121 c 0.32474,0 0.64947,0.324732 0.64947,0.649465 v 4.546261 c 0,0.324733 -0.32473,0.649465 -0.64947,0.649465 h -5.19572 c -0.64947,0 -1.29893,-0.162366 -1.29893,-0.162366 v 18.022675 c 0,0.324733 -0.32474,0.649466 -0.64947,0.649466 h -5.68283 c -0.32473,0 -0.64946,-0.324733 -0.64946,-0.649466 V 21.704679 c 0,0 -0.4871,0.162366 -0.9742,0.162366 h -5.52046 c -0.32473,0 -0.64947,-0.324733 -0.64947,-0.649465 v -4.708627 c 0,-0.324733 0.32474,-0.649466 0.64947,-0.649466 h 19.97107 z M 43.65546,15.859487 c -0.324733,0 -0.649466,0.324733 -0.649466,0.649466 v 4.54626 c 0,0.324733 0.324733,0.649466 0.649466,0.649466 h 5.520459 c 0.487099,0 0.974199,-0.162367 0.974199,-0.162367 v 18.022675 c 0,0.324733 0.324733,0.649466 0.649465,0.649466 h 5.682826 c 0.324733,0 0.649466,-0.324733 0.649466,-0.649466 V 21.704679 c 0,0 0.649465,0.162366 1.298931,0.162366 h 5.195726 c 0.324733,0 0.649466,-0.324733 0.649466,-0.649465 v -4.708627 c 0,-0.324733 -0.324733,-0.649466 -0.649466,-0.649466 z M 149.35602,0.4346752 c -10.39145,0 -19.48397,6.007558 -24.03023,14.6129798 -4.54626,-8.6054218 -13.47641,-14.6129798 -23.86787,-14.6129798 -10.391459,0 -19.321613,6.007558 -23.867874,14.6129798 C 73.043786,6.4422332 64.113632,0.4346752 53.722179,0.4346752 c -14.775346,0 -26.952829,12.1774828 -26.952829,27.1151958 0,14.937712 12.015117,27.115196 26.952829,27.115196 10.391453,0 19.321607,-6.007559 23.867867,-14.61298 4.546261,8.605421 13.476415,14.61298 23.867874,14.61298 10.39146,0 19.32161,-6.007559 23.86787,-14.61298 4.54626,8.605421 13.47641,14.61298 23.86787,14.61298 14.77534,0 26.95283,-12.177484 26.95283,-27.115196 0,-14.937713 -12.01512,-27.1151958 -26.79047,-27.1151958 M 53.722179,48.495142 c -11.528017,0 -20.782904,-9.417254 -20.782904,-20.945271 0,-11.528018 9.417253,-20.9452708 20.782904,-20.9452708 11.528018,0 20.782905,9.4172528 20.782905,20.9452708 0,11.528017 -9.254887,20.945271 -20.782905,20.945271 m 47.735741,0 c -11.528024,0 -20.782911,-9.417254 -20.782911,-20.945271 0,-11.528018 9.417253,-20.9452708 20.782911,-20.9452708 11.52802,0 20.78291,9.4172528 20.78291,20.9452708 0.16236,11.528017 -9.25489,20.945271 -20.78291,20.945271 m 47.8981,0 c -11.52801,0 -20.7829,-9.417254 -20.7829,-20.945271 0,-11.528018 9.41725,-20.9452708 20.7829,-20.9452708 11.52802,0 20.78291,9.4172528 20.78291,20.9452708 0,11.528017 -9.41726,20.945271 -20.78291,20.945271 M 111.84938,15.372388 c 0.4871,0 0.81183,0.324733 0.81183,0.649465 v 22.893669 c 0,0.324733 -0.32473,0.649465 -0.64947,0.649465 h -4.70862 c -0.32474,0 -0.64947,-0.162366 -0.81184,-0.324732 0,0 -8.605428,-11.690384 -8.767795,-12.015117 -0.324733,-0.324733 -0.649466,-1.136565 -0.649466,-1.136565 v 12.664582 c 0,0.324733 -0.324733,0.649466 -0.649465,0.649466 h -5.358093 c -0.324733,0 -0.649466,-0.324733 -0.649466,-0.649466 V 16.021853 c 0,-0.324732 0.324733,-0.649465 0.649466,-0.649465 h 4.708627 c 0.324733,0 0.649466,0.162366 0.811832,0.324733 0,0 8.44307,11.36565 8.7678,12.015116 0.32473,0.324733 0.64946,1.136565 0.64946,1.136565 V 16.021853 c 0,-0.324732 0.32474,-0.649465 0.64947,-0.649465 0,0 4.87099,0 5.19573,0"
            id="path1"
            style="stroke-width:1.62366"/>
        <polygon
                class="st0"
                points="141.5,33.3 146.1,28.2 141.5,23 146.4,23 148.6,25.5 150.8,23 155.5,23 150.9,28.1 155.5,33.3 150.7,33.3 148.4,30.8 146.2,33.3 "
                id="polygon12"
                transform="matrix(2.6926177,0,0,2.6926177,-242.93153,14.199796)"/>
        <polygon
                class="st0"
                points="141.5,20.7 136.3,20.7 136.3,23 141.5,23 141.5,26.5 136.3,26.5 136.3,29.7 141.5,29.7 141.5,33.3 132.5,33.3 132.5,17.1 141.5,17.1 "
                id="polygon13"
                transform="matrix(2.6926177,0,0,2.6926177,-242.93153,14.199796)"/>
        <path
                class="st1"
                d="m 103.60835,60.243557 v 17.771275 0 c -2.15409,-2.692617 -5.115982,-3.500403 -8.347123,-3.500403 -6.731542,0 -11.847517,4.577451 -13.463087,10.501206 -2.154095,-6.731541 -7.270068,-10.770468 -15.078658,-10.770468 -6.19302,0 -11.308995,2.692619 -13.73235,7.539328 V 76.13 H 39.793306 V 69.936981 H 54.064178 V 60.243557 H 28.21505 V 103.86397 H 39.793306 V 85.554165 H 51.37156 c -0.269261,1.34631 -0.538523,2.69262 -0.538523,4.30819 0,9.15489 7.000806,15.617185 15.886445,15.617185 7.539328,0 12.386041,-3.50041 15.078658,-9.962695 h -9.962687 c -1.346307,1.88483 -2.423353,2.42336 -5.115971,2.42336 -3.231141,0 -5.92376,-2.69262 -5.92376,-5.92376 h 20.194633 c 0.807785,7.27007 6.462282,13.463095 14.270872,13.463095 3.231141,0 6.462293,-1.61557 8.347123,-4.30819 v 0 2.69262 H 113.8403 V 60.243557 Z M 61.334246,85.554165 c 0.538524,-2.69262 2.692619,-4.57745 5.385236,-4.57745 2.96188,0 5.115971,1.88483 5.654495,4.57745 z m 36.081076,11.57825 c -3.769665,0 -6.19302,-3.5004 -6.19302,-7.27006 0,-4.03893 2.154093,-7.8086 6.19302,-7.8086 4.308198,0 5.923768,3.76967 5.923768,7.8086 0,4.03892 -1.61557,7.27006 -5.923768,7.27006 z"
                id="path13"
                style="stroke-width:2.69262"/>
</g>
</svg>
