<?xml version="1.0" encoding="UTF-8"?>
<svg id="Ebene_2" data-name="Ebene 2" xmlns="http://www.w3.org/2000/svg" viewBox="0 0 1024 205.95">
  <defs>
    <style>
      .cls-1 {
        fill: #1b181c;
      }

      .cls-1, .cls-2, .cls-3 {
        stroke-width: 0px;
      }

      .cls-2 {
        fill: #feec03;
      }

      .cls-3 {
        fill: #fefefe;
      }
    </style>
  </defs>
  <g id="Ebene_1-2" data-name="Ebene 1">
    <g>
      <path class="cls-3" d="m748.26,183.79c0,5.88.14,10.72-.06,15.56-.11,2.73.85,3.52,3.5,3.46,7.28-.15,14.59-.35,21.86.06,4.61.26,5.87-.97,5.85-5.72-.19-52.61-.12-105.22-.12-157.83,0-11.57-.16-23.14.09-34.7.08-3.76-1.09-4.7-4.7-4.58-7.84.26-15.7.32-23.54-.02-4.06-.18-4.89,1.21-4.86,5,.17,22.57.1,45.15.05,67.72,0,1.94.61,4.01-.88,6.3-.91-.84-1.67-1.53-2.42-2.23-16.46-15.42-36.32-19.4-57.71-15.62-32.04,5.66-53.25,29.69-56.32,62.16-2.19,23.14,2.8,44,18.85,61.55,22.31,24.42,72,30.88,100.39-1.11ZM117.86,80.44c-31.03-32.7-85.72-23.94-106.59,11.16C-.07,110.68-2.53,131.2,2.44,152.52c13.15,56.42,79.99,66.85,111.25,36.65,1.17-1.13,1.92-3.02,4.16-3.35,0,4.65.16,8.94-.06,13.22-.14,2.85.64,3.86,3.67,3.78,8.59-.21,17.19-.19,25.78,0,2.98.06,3.76-.91,3.76-3.8-.08-44.21-.09-88.42.01-132.63,0-3.12-1.12-3.7-3.91-3.65-8.41.15-16.82.18-25.22-.01-3.04-.07-4.34.59-4.11,3.92.29,4.26.07,8.56.07,13.78Zm872.99,105.1c0,5.19.12,9.45-.04,13.71-.1,2.57.58,3.63,3.4,3.58,8.78-.17,17.57-.16,26.35,0,2.68.05,3.45-.73,3.45-3.43-.08-44.4-.08-88.8,0-133.2,0-2.69-.75-3.48-3.44-3.43-8.78.16-17.57.17-26.35,0-2.82-.05-3.51,1-3.41,3.57.16,4.33.04,8.67.04,14.08-1.55-1.41-2.09-1.85-2.57-2.34-25.97-26.81-74.34-22.7-97.61,4.93-15.59,18.52-19.74,40.09-16.34,63.37,3.03,20.76,12.99,37.55,31.15,48.75,27.45,16.91,58.21,13.62,85.36-9.56Zm-538.75-22.91c-10.67,0-20.2.12-29.72-.07-3.23-.06-5.47.9-7.82,3.16-21.08,20.27-57.05,12.52-67.89-14.5-2.39-5.95-2.29-6.11,4.13-6.11,33.81,0,67.62-.05,101.42.06,3.7.01,5.38-.5,5.92-4.88,5.78-46.59-37.03-87.52-84.06-79.37-30.07,5.21-50.52,22.98-58.6,52.4-8.11,29.57-.16,55.73,23.64,75.4,23.56,19.46,50.3,22.12,78.11,9.58,15.82-7.14,27.08-19.22,34.86-35.67Zm58.25-85.7c0-3.96-.21-6.77.05-9.52.34-3.49-.59-4.86-4.46-4.7-8.02.33-16.07.29-24.09.01-3.65-.13-4.83.87-4.69,4.6.28,7.64.09,15.29.09,22.94,0,35.81.08,71.61-.1,107.42-.02,4.23,1.06,5.38,5.26,5.19,7.83-.37,15.7-.33,23.53,0,3.85.16,4.52-1.19,4.5-4.68-.15-22.75-.05-45.5-.1-68.26,0-4.12.34-8.18,1.08-12.22,3.42-18.82,17.94-28.74,39.37-26.86,16.97,1.48,26.28,12.8,26.28,31.96,0,25.18.05,50.35-.06,75.53-.01,3.17.42,4.67,4.18,4.53,8.39-.31,16.81-.19,25.21-.04,2.74.05,3.86-.48,3.85-3.6-.14-29.46.32-58.94-.23-88.39-.48-25.64-16.38-44.25-41.4-49.17-21.31-4.19-41.16-1.37-58.25,15.29Zm-219.61,26.6c0-9.93-.15-18.88.08-27.83.08-3.11-1.49-4.08-3.9-5.13-15.6-6.79-31.92-10.27-48.89-10.54-17.11-.27-33.44,2.64-47.68,13.02-19.87,14.49-23.35,47.88,4.84,61.68,10.65,5.21,21.98,8.1,33.37,10.94,10.1,2.52,20.58,4.05,29.67,9.55,8.83,5.35,8.41,14.4-.75,19.22-5.21,2.75-10.89,3.67-16.76,3.86-16.46.52-31.63-4.36-46.33-11.07-6.36-2.91-12.52-6.23-18.81-9.38,0,9.94.11,19.56-.07,29.19-.05,2.97,1.79,3.73,3.84,4.7,15.81,7.41,32.16,12.96,49.8,13.67,17.39.7,34.35-1.03,49.74-10.06,12.86-7.55,20.17-18.55,20.05-33.82-.12-15.44-8.13-25.81-21.35-32.81-8.97-4.75-18.63-7.48-28.39-9.98-10.64-2.72-21.61-4.28-31.77-8.67-4.37-1.89-8.82-4.17-8.66-9.78.16-5.88,4.59-8.58,9.43-10.57,1.37-.56,2.83-.91,4.28-1.24,9.86-2.22,19.67-1.37,29.43.67,13.36,2.8,25.86,8.01,38.8,14.38Zm557.14,29.49c0-22-.08-43.99.08-65.99.03-3.43-.79-4.44-4.29-4.32-8.39.28-16.8.21-25.2.02-3-.07-3.75.94-3.74,3.81.08,44.18.08,88.36,0,132.54,0,2.97.91,3.79,3.82,3.73,8.21-.18,16.44-.31,24.64.04,4.08.18,4.82-1.18,4.79-4.97-.19-21.62-.09-43.25-.09-64.87Zm4.49-111.43c.06-11.98-9.19-21.44-21.01-21.48-11.69-.04-21.47,9.67-21.44,21.3.03,11.62,9.82,21.28,21.52,21.23,11.49-.06,20.88-9.49,20.94-21.04Z"/>
      <path class="cls-1" d="m748.26,183.79c-28.39,31.99-78.07,25.53-100.39,1.11-16.04-17.55-21.03-38.41-18.85-61.55,3.07-32.47,24.28-56.5,56.32-62.16,21.39-3.78,41.25.2,57.71,15.62.75.7,1.51,1.39,2.42,2.23,1.49-2.29.87-4.37.88-6.3.05-22.57.12-45.15-.05-67.72-.03-3.8.8-5.18,4.86-5,7.83.34,15.7.28,23.54.02,3.61-.12,4.78.82,4.7,4.58-.25,11.56-.09,23.13-.09,34.7,0,52.61-.07,105.22.12,157.83.02,4.75-1.24,5.98-5.85,5.72-7.26-.41-14.57-.21-21.86-.06-2.66.05-3.62-.74-3.5-3.46.2-4.83.06-9.68.06-15.56Zm-43.64-8.84c24.84.06,42.53-17.19,42.87-41.8.34-24.42-17.84-42.72-42.59-42.88-24.21-.16-42.31,17.84-42.58,42.33-.27,24.27,17.73,42.3,42.31,42.35Z"/>
      <path class="cls-1" d="m117.86,80.44c0-5.22.22-9.52-.07-13.78-.23-3.32,1.07-3.99,4.11-3.92,8.4.19,16.82.16,25.22.01,2.79-.05,3.92.53,3.91,3.65-.1,44.21-.09,88.42-.01,132.63,0,2.89-.77,3.86-3.76,3.8-8.59-.19-17.19-.2-25.78,0-3.03.07-3.82-.93-3.67-3.78.22-4.28.06-8.57.06-13.22-2.24.33-2.99,2.22-4.16,3.35-31.26,30.19-98.11,19.77-111.25-36.65C-2.53,131.2-.07,110.68,11.27,91.6c20.87-35.1,75.56-43.86,106.59-11.16Zm1.19,52.78c.14-24.86-17.47-42.72-42.37-42.96-24.11-.24-42.44,17.88-42.73,42.22-.28,24.25,17.71,42.32,42.28,42.46,24.84.15,42.68-17.23,42.81-41.72Z"/>
      <path class="cls-1" d="m990.85,185.54c-27.16,23.18-57.91,26.47-85.36,9.56-18.17-11.19-28.12-27.98-31.15-48.75-3.4-23.27.75-44.85,16.34-63.37,23.26-27.63,71.64-31.74,97.61-4.93.48.5,1.02.93,2.57,2.34,0-5.41.12-9.75-.04-14.08-.1-2.57.59-3.62,3.41-3.57,8.78.17,17.57.16,26.35,0,2.69-.05,3.45.75,3.44,3.43-.08,44.4-.08,88.8,0,133.2,0,2.7-.76,3.48-3.45,3.43-8.78-.16-17.57-.17-26.35,0-2.83.05-3.5-1.01-3.4-3.58.16-4.25.04-8.51.04-13.71Zm-41.13-10.59c24.69-.09,42.85-18.05,42.63-42.17-.22-24.61-18.64-42.79-43.06-42.51-24.51.28-42.16,18.15-42.14,42.67.02,24.47,17.89,42.1,42.58,42.01Z"/>
      <path class="cls-1" d="m452.09,162.63c-7.78,16.45-19.05,28.53-34.86,35.67-27.81,12.55-54.55,9.89-78.11-9.58-23.8-19.66-31.75-45.83-23.64-75.4,8.08-29.42,28.53-47.19,58.6-52.4,47.04-8.15,89.85,32.78,84.06,79.37-.54,4.38-2.22,4.89-5.92,4.88-33.81-.11-67.62-.07-101.42-.06-6.42,0-6.52.16-4.13,6.11,10.84,27.02,46.81,34.76,67.89,14.5,2.35-2.26,4.59-3.23,7.82-3.16,9.52.19,19.04.07,29.72.07Zm-66.38-74.07c-17.37-.06-32.34,9.78-38.79,25.34-1.27,3.07-1.42,4.45,2.82,4.42,23.9-.19,47.81-.14,71.72-.04,3.48.01,4.11-.71,2.8-4.09-5.93-15.34-21.13-25.57-38.55-25.63Z"/>
      <path class="cls-1" d="m510.35,76.93c17.1-16.66,36.95-19.48,58.25-15.29,25.02,4.92,40.92,23.53,41.4,49.17.55,29.46.09,58.93.23,88.39.01,3.13-1.1,3.65-3.85,3.6-8.4-.15-16.82-.26-25.21.04-3.75.14-4.19-1.36-4.18-4.53.11-25.18.06-50.35.06-75.53,0-19.16-9.31-30.48-26.28-31.96-21.43-1.87-35.95,8.05-39.37,26.86-.74,4.05-1.09,8.1-1.08,12.22.05,22.75-.05,45.5.1,68.26.02,3.49-.65,4.84-4.5,4.68-7.83-.33-15.7-.36-23.53,0-4.2.2-5.28-.96-5.26-5.19.18-35.81.1-71.61.1-107.42,0-7.65.2-15.3-.09-22.94-.14-3.73,1.04-4.72,4.69-4.6,8.02.28,16.07.32,24.09-.01,3.87-.16,4.8,1.21,4.46,4.7-.27,2.76-.05,5.56-.05,9.52Z"/>
      <path class="cls-1" d="m290.74,103.53c-12.94-6.38-25.45-11.59-38.8-14.38-9.76-2.04-19.57-2.89-29.43-.67-1.45.33-2.92.68-4.28,1.24-4.85,1.99-9.27,4.7-9.43,10.57-.15,5.61,4.3,7.89,8.66,9.78,10.17,4.4,21.14,5.95,31.77,8.67,9.76,2.5,19.42,5.23,28.39,9.98,13.22,7,21.22,17.37,21.35,32.81.12,15.26-7.19,26.27-20.05,33.82-15.39,9.03-32.36,10.76-49.74,10.06-17.64-.71-33.98-6.25-49.8-13.67-2.06-.96-3.9-1.72-3.84-4.7.18-9.62.07-19.25.07-29.19,6.28,3.15,12.45,6.48,18.81,9.38,14.69,6.72,29.86,11.59,46.33,11.07,5.86-.19,11.54-1.11,16.76-3.86,9.15-4.82,9.58-13.87.75-19.22-9.08-5.51-19.57-7.03-29.67-9.55-11.39-2.84-22.72-5.73-33.37-10.94-28.19-13.8-24.71-47.19-4.84-61.68,14.24-10.39,30.56-13.3,47.68-13.02,16.96.27,33.29,3.75,48.89,10.54,2.41,1.05,3.98,2.02,3.9,5.13-.23,8.94-.08,17.89-.08,27.83Z"/>
      <path class="cls-1" d="m847.89,133.03c0,21.62-.1,43.25.09,64.87.03,3.79-.71,5.14-4.79,4.97-8.2-.35-16.43-.22-24.64-.04-2.9.06-3.82-.76-3.82-3.73.09-44.18.08-88.36,0-132.54,0-2.87.74-3.88,3.74-3.81,8.4.19,16.81.26,25.2-.02,3.51-.12,4.32.89,4.29,4.32-.17,22-.08,43.99-.08,65.99Z"/>
      <path class="cls-2" d="m852.38,21.6c-.06,11.55-9.45,20.98-20.94,21.04-11.7.06-21.49-9.61-21.52-21.23-.03-11.63,9.75-21.34,21.44-21.3,11.82.04,21.07,9.5,21.01,21.48Z"/>
      <path class="cls-3" d="m704.62,174.94c-24.57-.06-42.58-18.09-42.31-42.35.27-24.49,18.38-42.49,42.58-42.33,24.75.16,42.93,18.46,42.59,42.88-.34,24.62-18.03,41.86-42.87,41.8Z"/>
      <path class="cls-3" d="m119.04,133.22c-.14,24.49-17.97,41.87-42.81,41.72-24.58-.15-42.57-18.21-42.28-42.46.28-24.34,18.62-42.46,42.73-42.22,24.9.24,42.51,18.1,42.37,42.96Z"/>
      <path class="cls-3" d="m949.72,174.94c-24.69.09-42.56-17.54-42.58-42.01-.02-24.52,17.63-42.39,42.14-42.67,24.42-.28,42.84,17.91,43.06,42.51.22,24.12-17.94,42.08-42.63,42.17Z"/>
      <path class="cls-3" d="m385.71,88.56c17.42.06,32.62,10.29,38.55,25.63,1.31,3.38.67,4.11-2.8,4.09-23.91-.1-47.81-.15-71.72.04-4.24.03-4.09-1.35-2.82-4.42,6.44-15.56,21.41-25.39,38.79-25.34Z"/>
    </g>
  </g>
</svg>