<?xml version="1.0" encoding="utf-8"?>
<!--Generator: Adobe Illustrator 13.0.2, SVG Export Plug-In . SVG Version: 6.00 Build 14948)-->
<svg xmlns="http://www.w3.org/2000/svg" xml:space="preserve" baseProfile="tiny" viewBox="0 0 566.929 175.236">
  <path fill="#FC0" d="M566.927 0v125.111H0V0h566.927z"/>
    <path fill="#D2002E" d="M99.7 22.467 81.587 47.075h98.717c4.99 0 4.924 1.896 2.485 5.2-2.477 3.354-6.622 9.187-9.145 12.594-1.28 1.729-3.595 4.879 4.076 4.879h40.369s6.507-8.855 11.96-16.257c7.421-10.069.644-31.023-25.883-31.023L99.7 22.467z"/>
    <path fill="#D2002E" d="m74.258 102.637 36.381-49.432h45.146c4.99 0 4.925 1.896 2.486 5.2-2.477 3.354-6.69 9.125-9.213 12.532-1.281 1.729-3.595 4.884 4.075 4.884h60.482c-5.03 6.891-21.346 26.816-50.643 26.816H74.258zM282.613 75.814l-19.729 26.822h-52.042S230.56 75.82 230.577 75.82l52.036-.006zM362.339 69.748H235.048l34.809-47.281h52.027l-19.952 27.111h23.223l19.96-27.111h52.021l-34.797 47.281zM357.871 75.821l-19.738 26.816H286.11s19.718-26.816 19.735-26.816h52.026zM0 86.395h76.668l-4.188 5.697H0v-5.697zM0 75.821h84.457l-4.196 5.689H0v-5.689zM0 96.975h68.883l-4.168 5.662H0v-5.662zM566.929 92.092h-76.372l4.19-5.696h72.182v5.696zM566.929 102.637l-84.137.008 4.168-5.67h79.969v5.662zM502.526 75.821h64.403v5.692l-68.589.005 4.186-5.697zM469.188 22.467l-34.804 47.28h-55.128s34.812-47.28 34.829-47.28h55.103zM374.795 75.821s-3.803 5.197-5.65 7.695c-6.535 8.832-.758 19.121 20.568 19.121h83.552l19.736-26.816H374.795z"/>
    <path fill="#FC0" d="M0 145.451h566.929v2.834H0v-2.834zM0 158.676h566.929v2.834H0v-2.834zM0 171.898h566.929v2.834H0v-2.834z"/>
    <path fill="#D2002E" d="M190.371 174.732h17.062l2.723-3.691h-12.697l7.12-9.648h11.563l2.724-3.692h-11.563l6.314-8.556h12.698l2.724-3.692h-17.061l-21.607 29.279zM211.31 174.732h5.236l17.847-12.416-.175 12.416h5.498l.041-15.31 20.562-13.969h-4.974l-16.368 11.242.179-11.242h-5.236l-.159 14.053-22.451 15.226z"/>
    <path fill="#D2002E" fill-rule="evenodd" d="M266.924 149.145h3.709c2.706 0 5.729 1.342 3.005 5.033-2.848 3.859-7.211 5.16-9.917 5.16h-4.32l7.523-10.193zm-23.246 25.587h4.363l8.636-11.703h4.276c5.498 0 12.48-2.307 17.278-8.809 4.922-6.67 1.277-8.768-4.962-8.768h-7.985l-21.606 29.28zM268.805 174.732h4.364l9.596-13.004h2.618c2.312 0 3.753 0 3.001 2.852l-2.822 10.152h4.975l2.845-11.662c.372-1.803.182-2.432-.8-2.936l.062-.084c3.969-.588 8.574-3.104 11.206-6.67 5.169-7.004.047-7.928-5.975-7.928h-7.462l-21.608 29.28zm23.247-25.587h4.188c4.015 0 4.871 1.678 2.921 4.32-2.074 2.811-5.817 4.572-9.963 4.572h-3.709l6.563-8.892z"/>
    <path fill="#D2002E" d="M295.055 174.732h17.061l2.724-3.691h-12.697l7.119-9.648h11.563l2.724-3.692h-11.563l6.315-8.556h12.697l2.725-3.692h-17.061l-21.607 29.279zM354.739 145.998c-1.568-.713-3.721-1.049-5.728-1.049-5.498 0-11.817 2.77-15.656 7.971-6.717 9.102 7.705 7.299 2.875 13.842-2.538 3.439-7.02 4.783-9.506 4.783-2.226 0-4.225-.84-5.275-1.428l-3.314 3.902c1.542.629 3.204 1.217 5.342 1.217 6.108 0 12.953-2.477 17.565-8.727 7.12-9.646-6.931-8.348-2.782-13.967 2.26-3.062 5.759-3.902 8.202-3.902 2.27 0 3.212.379 4.818 1.217l3.459-3.859zM376.558 145.998c-1.569-.713-3.721-1.049-5.729-1.049-5.498 0-11.817 2.77-15.655 7.971-6.718 9.102 7.704 7.299 2.875 13.842-2.538 3.439-7.02 4.783-9.507 4.783-2.226 0-4.225-.84-5.274-1.428l-3.315 3.902c1.543.629 3.204 1.217 5.342 1.217 6.109 0 12.953-2.477 17.565-8.727 7.12-9.646-6.93-8.348-2.782-13.967 2.26-3.062 5.759-3.902 8.202-3.902 2.27 0 3.213.379 4.818 1.217l3.46-3.859z"/>
</svg>
