<?xml version="1.0" encoding="UTF-8" standalone="no"?>
<svg xmlns="http://www.w3.org/2000/svg" viewBox="0 0 621.672 394.889">
    <defs>
        <clipPath id="a" clipPathUnits="userSpaceOnUse">
            <path d="M0 296.167h466.254V0H0Z"/>
        </clipPath>
        <clipPath id="b" clipPathUnits="userSpaceOnUse">
            <path d="M-.001 296.167h466.244V.003H-.001Z"/>
        </clipPath>
    </defs>
    <g clip-path="url(#a)" transform="matrix(1.33333 0 0 -1.33333 0 394.89)">
        <path fill="#fd0" d="M100.247 175.057c2.214 18.373 10.665 34.501 20.054 45.204l-46.261-.003c-1.647 0-2.37-1.334-1.472-2.714zm293.238 42.632C294.545 88.733 259.9 71.034 214.102 71.58c-44.473.55-76.812 32.064-77.361 75.164-.55 44.693 32.01 77.856 76.648 77.856 18.43 0 33.224-5.656 44.575-14.69l-18.638-28.72c-6.09 4.886-16.202 8.544-26.265 8.544-23.06-.054-40.74-17.295-40.74-41.782 0-24.433 18.229-40.794 41.783-40.794 22.457 0 35.744 14.605 51.172 38.27l48.756 74.834h78.184c1.658 0 2.204-1.263 1.269-2.572"/>
        <path fill="#1a1a18" d="M392.216 220.261H314.03l-48.755-74.835c-15.428-23.665-28.715-38.269-51.172-38.269-23.554 0-41.783 16.361-41.783 40.793 0 24.488 17.68 41.73 40.74 41.783 10.063 0 20.175-3.658 26.264-8.545l18.639 28.72c-11.352 9.035-26.145 14.69-44.576 14.69-44.637 0-77.196-33.162-76.647-77.855.549-43.1 32.888-74.615 77.36-75.164 45.799-.545 80.444 17.154 179.383 146.11.936 1.31.39 2.572-1.268 2.572m1.315 10.98c7.303 0 12.134-4.886 12.134-11.254 0-3.35-.933-5.656-4.008-9.664C302.774 81.791 265.603 60.05 214.102 60.597c-50.512.55-87.793 36.952-88.342 86.091-.55 50.567 36.84 88.891 87.464 88.891 25.463 0 45.805-9.87 59.218-24.02l-30.955-46.74c-6.382 7.321-15.484 13.934-27.987 13.934-17.46 0-30.198-12.354-30.198-30.857 0-18.338 13.452-29.759 30.802-29.759 16.307 0 27.013 10.103 42.77 34.316l51.282 78.788ZM74.04 220.258c-1.648 0-2.37-1.334-1.472-2.714l27.679-42.487c2.214 18.372 10.664 34.501 20.053 45.204zm32.943-74.229-43.485 65.173c-2.251 3.35-2.91 5.435-2.91 8.785 0 6.368 4.832 11.254 12.134 11.254h72.694c-22.731-17.898-39.751-49.304-38.433-85.212"/>
    </g>
</svg>