<?xml version="1.0" encoding="UTF-8" standalone="no"?>
<!--Created with Inkscape (http://www.inkscape.org/)-->
<svg xmlns="http://www.w3.org/2000/svg" version="1.0" viewBox="0 0 605.357 145.498">
  <metadata/>
  <path fill="#fc0" d="M.001 145.498h605.356V0H.001v145.498z"/>
  <path d="M474.605 100.648h14.258l-14.4 14.565h-14.252l14.394-14.565zM455.375 100.648h14.258l-14.399 14.565h-14.258l14.399-14.565zM506.427 100.648h-14.254l14.394 14.565h14.259l-14.4-14.565zM525.661 100.648h-14.258l14.394 14.565h14.258l-14.394-14.565zM516.918 60.216c2.469-6.735 4.19-16.988 4.547-24.162l25.294 6.29c-2.025 29.688-24.295 55.692-57.327 55.681-37.37-.016-51.811-32.5-49.868-57.12l10.974-3.49c-1.785 14.009 2.551 24.109 5.542 28.745-3.56-19.82 11.404-35.865 30.129-35.876 16.84-.01 30.773 12.287 30.709 29.933zm-50.9.625c0 11.18 9.064 20.245 20.245 20.245 11.176 0 20.239-9.064 20.239-20.245 0-11.176-9.064-20.24-20.24-20.24-11.18 0-20.245 9.064-20.245 20.24zM69.372 52.792H58.599V97.84h9.357c14.713 0 22.329-8.778 22.329-22.91 0-9.813-3.616-15.816-8.522-18.975-2.963-1.937-6.773-3.164-12.391-3.164zm-.705 5.617c10.193 0 14.264 6.904 14.264 16.522 0 10.714-4.653 17.293-14.264 17.293h-3.1V58.409h3.1zM121.189 83.191v-2.257c0-11.62-5.097-16.65-12.391-16.65-8.325 0-13.233 7.098-13.233 17.23 0 9.678 4.646 16.778 14.33 16.778 4.064 0 7.418-1.033 9.552-1.999l-.326-5.617c-1.677 1.226-4.32 2.65-8.131 2.65-6.127 0-8.71-3.491-8.71-10.135h18.909zm-6.584-4.586H102.28c.066-6.062 2.518-9.547 6.323-9.547 4 0 6.003 3.225 6.003 9.547zM152.295 97.841c-.131-1.938-.262-4.131-.262-6.323V64.732h-6.712v19.425c0 5.098-1.933 8.523-6.195 8.523-3.418 0-5.101-2.199-5.101-7.361V64.732h-6.708v22.14c0 6.969 3.034 11.42 9.677 11.42 4.522 0 6.974-2.39 8.587-5.488h.13c0 .972.254 4.196.254 5.037h6.33zM175.725 97.325V92.29c-.842.39-1.872.775-3.23.775-2.387 0-3.484-1.226-3.484-4.84v-18.33h6.714v-5.162h-6.714v-8.776l-6.708 1.997v6.78h-5.297v5.16h5.297v19.688c0 6.388 3.028 8.71 8.45 8.71 1.938 0 3.746-.45 4.972-.966zM199.601 88.288c0-4-2.387-6.134-6.388-8.391l-2.905-1.612c-2.903-1.611-4.644-2.708-4.644-4.907 0-2.323 1.61-3.869 4.964-3.869 2.715 0 4.973.646 6.781 1.422l.32-5.422c-1.353-.522-4.131-1.226-7.616-1.226-6.714 0-11.034 4.515-11.034 9.486 0 4.711 2.643 6.905 6.71 8.907l3.484 1.743c2.974 1.481 3.874 2.968 3.874 4.71 0 2.578-2.257 3.935-5.742 3.935-3.229 0-6.132-1.357-8.005-2.324l-.386 5.808c2.063.973 5.358 1.744 9.097 1.744 7.426 0 11.49-4.131 11.49-10.004zM226.896 96.94l-.39-5.682c-1.482.84-3.87 1.676-6.129 1.676-5.747 0-9.037-4.515-9.037-11.42 0-8.005 3.23-11.874 8.907-11.874 2.39 0 4.326.704 5.938 1.546l.32-5.612c-1.612-.711-4.32-1.291-6.708-1.291-10.198 0-15.425 7.099-15.425 17.167 0 9.357 4.711 16.842 15.1 16.842 2.844 0 5.683-.646 7.424-1.353zM256.71 97.841v-22.14c0-6.969-3.035-11.418-9.683-11.418-4.386 0-6.774 2.452-8.195 4.84h-.131V49.437h-6.714v48.404h6.714v-19.62c0-5.098 2.132-8.327 6.328-8.327 3.42 0 4.966 2.198 4.966 7.36v20.587h6.714zM288.662 83.191v-2.257c0-11.62-5.102-16.65-12.392-16.65-8.324 0-13.233 7.098-13.233 17.23 0 9.678 4.647 16.778 14.33 16.778 4.065 0 7.42-1.033 9.553-1.999l-.326-5.617c-1.677 1.226-4.32 2.65-8.131 2.65-6.133 0-8.711-3.491-8.711-10.135h18.91zm-6.584-4.586h-12.326c.06-6.062 2.514-9.547 6.323-9.547 4 0 6.003 3.225 6.003 9.547zM336.098 66.024c0-4.13-1.226-7.425-3.55-9.683-2.387-2.321-5.552-3.55-10.134-3.55H310.54v45.05h6.968V79.577h4.195c9.422 0 14.395-4.906 14.395-13.553zm-15.426-7.744c5.482 0 8.327 2.452 8.327 8 0 4.971-2.39 7.81-8.391 7.81h-3.1V58.28h3.164zM366.113 81.254c0-11.94-6.194-16.971-13.94-16.971-7.744 0-13.943 5.03-13.943 16.971 0 12.136 6.2 17.037 13.944 17.037 7.745 0 13.939-4.901 13.939-17.037zm-6.97 0c0 6.903-1.807 12.005-6.97 12.005-5.165 0-6.973-5.102-6.973-12.005 0-6.903 1.808-11.94 6.974-11.94 5.162 0 6.97 5.037 6.97 11.94zM391.47 88.288c0-4-2.388-6.134-6.393-8.391l-2.905-1.612c-2.903-1.611-4.646-2.708-4.646-4.907 0-2.323 1.619-3.869 4.973-3.869 2.707 0 4.966.646 6.773 1.422l.325-5.422c-1.357-.522-4.13-1.226-7.614-1.226-6.714 0-11.04 4.515-11.04 9.486 0 4.711 2.649 6.905 6.714 8.907l3.484 1.743c2.97 1.481 3.876 2.968 3.876 4.71 0 2.578-2.263 3.935-5.748 3.935-3.225 0-6.128-1.357-8-2.324l-.391 5.808c2.068.973 5.357 1.744 9.102 1.744 7.424 0 11.49-4.131 11.49-10.004zM412.631 97.325V92.29c-.841.39-1.872.775-3.229.775-2.387 0-3.484-1.226-3.484-4.84v-18.33h6.713v-5.162h-6.713v-8.776l-6.715 1.997v6.78h-5.29v5.16h5.29v19.688c0 6.388 3.034 8.71 8.458 8.71 1.937 0 3.744-.45 4.97-.966z"/>
</svg>